<?xml version="1.0" encoding="UTF-8"?>
<svg id="Layer_2" data-name="Layer 2" xmlns="http://www.w3.org/2000/svg" viewBox="0 0 145 145">
  <defs>
    <style>
      .cls-1 {
        fill: #fff;
      }
    </style>
  </defs>
  <g id="Layer_1-2" data-name="Layer 1">
    <path class="cls-1" d="M0,10.386C0,4.649,4.767,0,10.648,0h123.703c5.882,0,10.648,4.649,10.648,10.386v124.229c0,5.737-4.767,10.386-10.648,10.386H10.648c-5.882,0-10.648-4.649-10.648-10.386V10.386ZM44.796,121.383V55.907h-21.759v65.477h21.759ZM33.921,46.962c7.585,0,12.307-5.021,12.307-11.31-.136-6.425-4.712-11.31-12.162-11.31s-12.316,4.894-12.316,11.31c0,6.289,4.722,11.31,12.026,11.31h.145ZM78.4,121.383v-36.567c0-1.957.145-3.915.725-5.311,1.568-3.906,5.147-7.957,11.165-7.957,7.875,0,11.02,5.999,11.02,14.808v35.027h21.759v-37.555c0-20.119-10.73-29.471-25.049-29.471-11.546,0-16.72,6.344-19.62,10.812v.227h-.145l.145-.227v-9.262h-21.75c.272,6.144,0,65.477,0,65.477h21.75Z"/>
  </g>
</svg>