<?xml version="1.0" encoding="UTF-8"?>
<svg id="Layer_2" data-name="Layer 2" xmlns="http://www.w3.org/2000/svg" viewBox="0 0 129.05 150">
  <defs>
    <style>
      .cls-1 {
        fill: #fff;
      }
    </style>
  </defs>
  <g id="Layer_1-2" data-name="Layer 1">
    <path class="cls-1" d="M100.42,69.522c-.646-.31-1.302-.608-1.967-.893-1.158-21.334-12.815-33.547-32.388-33.672-.089,0-.177,0-.266,0-11.708,0-21.444,4.997-27.437,14.091l10.765,7.384c4.477-6.793,11.503-8.241,16.678-8.241.06,0,.12,0,.179,0,6.445.041,11.308,1.915,14.456,5.569,2.291,2.66,3.823,6.337,4.581,10.976-5.714-.971-11.894-1.27-18.5-.891-18.61,1.072-30.573,11.925-29.77,27.007.408,7.65,4.219,14.231,10.731,18.53,5.506,3.634,12.597,5.412,19.967,5.009,9.733-.534,17.368-4.247,22.694-11.037,4.045-5.156,6.604-11.838,7.734-20.258,4.638,2.799,8.076,6.483,9.974,10.911,3.228,7.527,3.416,19.897-6.677,29.981-8.843,8.834-19.473,12.656-35.537,12.774-17.82-.132-31.297-5.847-40.059-16.986-8.205-10.43-12.446-25.496-12.604-44.779.158-19.283,4.399-34.349,12.604-44.779,8.762-11.139,22.239-16.854,40.059-16.986,17.949.133,31.661,5.876,40.758,17.068,4.461,5.489,7.824,12.391,10.041,20.439l12.615-3.366c-2.688-9.906-6.916-18.443-12.671-25.522C104.716,7.505,87.658.152,65.679,0h-.088C43.657.152,26.791,7.533,15.46,21.937,5.376,34.755.175,52.59,0,74.947v.053s0,.053,0,.053c.175,22.357,5.376,40.193,15.459,53.011,11.331,14.404,28.198,21.785,50.132,21.937h.088c19.5-.135,33.246-5.241,44.569-16.554,14.815-14.801,14.369-33.353,9.486-44.742-3.503-8.167-10.182-14.801-19.315-19.182ZM66.75,101.177c-8.156.459-16.63-3.202-17.048-11.043-.31-5.814,4.138-12.302,17.548-13.074,1.536-.089,3.043-.132,4.523-.132,4.871,0,9.428.473,13.571,1.379-1.545,19.298-10.609,22.432-18.595,22.87Z"/>
  </g>
</svg>