<?xml version="1.0" encoding="UTF-8"?>
<svg id="Layer_2" data-name="Layer 2" xmlns="http://www.w3.org/2000/svg" viewBox="0 0 150 132.072">
  <defs>
    <style>
      .cls-1 {
        fill: #fff;
      }
    </style>
  </defs>
  <g id="Layer_1-2" data-name="Layer 1">
    <path class="cls-1" d="M32.514,8.89c17.197,12.911,35.695,39.088,42.486,53.136,6.792-14.047,25.288-40.226,42.486-53.136,12.409-9.316,32.514-16.524,32.514,6.412,0,4.581-2.626,38.48-4.167,43.983-5.354,19.134-24.865,24.014-42.22,21.06,30.336,5.163,38.053,22.265,21.387,39.367-31.652,32.48-45.494-8.149-49.042-18.56-.65-1.909-.954-2.801-.959-2.042-.004-.759-.309.134-.959,2.042-3.547,10.411-17.388,51.041-49.042,18.56-16.666-17.102-8.95-34.205,21.387-39.367-17.355,2.954-36.866-1.926-42.22-21.06C2.626,53.782,0,19.883,0,15.303,0-7.634,20.106-.426,32.514,8.89h0Z"/>
  </g>
</svg>