<?xml version="1.0" encoding="UTF-8"?>
<svg id="Layer_2" data-name="Layer 2" xmlns="http://www.w3.org/2000/svg" viewBox="0 0 150 149.986">
  <defs>
    <style>
      .cls-1 {
        fill: #fff;
      }
    </style>
  </defs>
  <g id="Layer_1-2" data-name="Layer 1">
    <g>
      <path class="cls-1" d="M114.843,27.612c-5.02,0-8.786,3.765-8.786,8.786s3.765,8.786,8.786,8.786,8.786-3.765,8.786-8.786c0-5.02-3.765-8.786-8.786-8.786Z"/>
      <path class="cls-1" d="M75.307,38.908c-20.709,0-37.026,16.944-37.026,37.026s16.944,37.026,37.026,37.026,37.026-16.944,37.026-37.026-16.316-37.026-37.026-37.026ZM75.307,99.781c-13.179,0-23.847-10.668-23.847-23.847s10.668-23.847,23.847-23.847,23.847,10.668,23.847,23.847-10.668,23.847-23.847,23.847Z"/>
      <path class="cls-1" d="M105.429,0h-59.618C20.082,0,0,20.082,0,45.184v59.618c0,25.102,20.082,45.184,45.184,45.184h59.618c25.102,0,45.184-20.082,45.184-45.184v-59.618c.628-25.102-19.454-45.184-44.556-45.184ZM136.179,105.429c0,16.944-13.806,31.378-31.378,31.378h-59.618c-16.944,0-31.378-13.806-31.378-31.378v-59.618c0-16.944,13.806-31.378,31.378-31.378h59.618c16.944,0,31.378,13.806,31.378,31.378v59.618Z"/>
    </g>
  </g>
</svg>