<?xml version="1.0" encoding="UTF-8"?>
<svg id="Layer_2" data-name="Layer 2" xmlns="http://www.w3.org/2000/svg" xmlns:xlink="http://www.w3.org/1999/xlink" viewBox="0 0 153.508 219.636">
  <defs>
    <style>
      .cls-1 {
        fill: #fff;
      }

      .cls-2 {
        fill: url(#linear-gradient);
      }
    </style>
    <linearGradient id="linear-gradient" x1="97.807" y1="45.856" x2="153.508" y2="45.856" gradientUnits="userSpaceOnUse">
      <stop offset=".095" stop-color="#fff"/>
      <stop offset=".883" stop-color="#fff" stop-opacity="0"/>
    </linearGradient>
  </defs>
  <g id="Layer_1-2" data-name="Layer 1">
    <g>
      <g>
        <path class="cls-1" d="M121.62,176.57h-.05c0-.03-.02-.05-.03-.09v-.01l-3.12-3.7-.01-.01c-1.77-1.13-4.09-1.82-6.64-1.82-1.24,0-2.43.16-3.52.47l-10.51-90.62c4.04-.83,7.07-4.4,7.07-8.67v-2c0-.7-.58-1.27-1.27-1.27h-1.69v-8.9c.56-.36.94-.99.94-1.7v-.06c0-1.09-.89-1.98-1.99-1.98h-6.61v-17.26h.53c1.67,0,2.6-1.69,1.58-2.83l-21.8-24.29V1.07c0-.59-.48-1.07-1.07-1.07h-1.9c-.59,0-1.07.48-1.07,1.07v10.76l-21.8,24.29c-1.02,1.14-.09,2.83,1.57,2.83h.53v17.26h-6.6c-1.1,0-1.99.89-1.99,1.98v.06c0,.71.38,1.34.94,1.7v8.9h-1.69c-.7,0-1.27.57-1.27,1.27v2c0,4.86,3.92,8.81,8.78,8.85l-12.72,94.86c-1.46-.6-3.16-.92-4.95-.91-.27.05-.53.1-.8.15l-10.5,3.83c-.37.14-.7.37-.96.67l-10.09,12.03c10.49.03,20.88-2.4,31.61.32,7.55,1.43,13.51,6.56,21.17,7.57,4.33.87,10.28,1.04,14.07-.54,5.33-1.93,8.67-5.5,16.58-5.94,5.66-.49,11.03,1.26,16.23,3.15,10.41,4.23,18.55,1.77,27.84-1.97l-14.79-17.62ZM50.76,68.85h-3.61v-8.6h3.61v8.6ZM78.03,145.08h-10.5v-11.27c0-2.7,2.35-4.89,5.25-4.89s5.25,2.19,5.25,4.89v11.27ZM78.03,114.05h-10.5v-11.28c0-2.7,2.35-4.89,5.25-4.89s5.25,2.19,5.25,4.89v11.28ZM90.15,68.85h-35.35v-8.6h35.35v8.6ZM90.15,56.21h-35.35v-17.26h35.35v17.26ZM94.19,68.85v-8.6h3.62v8.6h-3.62Z"/>
        <path class="cls-1" d="M141.47,201.42c-1.46,1.63-3,3.05-3.74,3.44-.01,0-.01.01-.02.01-11.73,8.62-26.63,3.82-39.6.69-4.07-.69-8.79.35-12.3,1.79-8.06,3.7-16.75,8.26-28.9,4.11-5.42-1.81-10.57-4.64-15.93-6.6-2.77-1.01-5.59-1.78-8.54-2.07-3.98-.52-7.88-.5-11.98-.22-4.69.19-11.82.83-16.37-1.58-2.02-1.06-3.52-2.72-4.09-5.27l.02-.08c.1-.5.66-.67,1.47-.67,1.41.22,2.81.37,4.21.45,11.64.72,23.09-2.58,34.96.43,7.55,1.43,13.51,6.56,21.17,7.57,4.33.87,10.28,1.04,14.07-.54,5.33-1.93,8.67-5.5,16.58-5.94,5.66-.49,11.03,1.26,16.23,3.15,11.28,4.58,19.89,1.31,30.19-2.93.71-.29,1.43-.59,2.16-.89,6.35-2.81,3.56,1.64.41,5.15Z"/>
        <path class="cls-1" d="M5.576,211.968c-.04-.133-.152-.696,1.368-1.861.923-.708,5.888-4.277,19.021-3.374,5.665.39,8.559.589,12.216,2.221,3.768,1.682,4.439,3.142,8.408,4.204,4.447,1.19,7.759.469,8.17,1.745.179.555-.181,1.523-2.618,3.332-1.366.453-3.808,1.148-6.901,1.348-8.286.536-11.611-3.106-24.22-5.39-4.638-.84-6.957-1.26-8.54-1.353-3.685-.216-6.614.088-6.904-.873Z"/>
      </g>
      <path class="cls-2" d="M153.508,31.932v27.855c0,.776-.495,1.502-1.329,1.972-.592.335-1.319.506-2.047.506-.301,0-.602-.029-.892-.085l-48.949-9.805c-1.465-.292-2.483-1.275-2.483-2.392v-5.141c0-1.047.892-1.979,2.231-2.336l48.949-12.909c1.028-.278,2.183-.164,3.085.299.902.47,1.436,1.225,1.436,2.036Z"/>
    </g>
  </g>
</svg>