<?xml version="1.0" encoding="UTF-8"?>
<svg id="Layer_2" data-name="Layer 2" xmlns="http://www.w3.org/2000/svg" viewBox="0 0 139.912 149.998">
  <defs>
    <style>
      .cls-1 {
        fill: #fff;
      }
    </style>
  </defs>
  <g id="Layer_1-2" data-name="Layer 1">
    <path class="cls-1" d="M139.906,49.25c0-32.54-21.32-42.08-21.32-42.08C107.836,2.23,89.386.16,70.206,0h-.47c-19.18.16-37.62,2.23-48.37,7.17C21.366,7.17.046,16.71.046,49.25c0,7.45-.15,16.36.09,25.81.77,31.82,5.83,63.18,35.25,70.97,13.57,3.59,25.21,4.34,34.6,3.82,17.01-.94,26.56-6.07,26.56-6.07l-.57-12.34s-12.15,3.83-25.8,3.37c-13.53-.47-27.81-1.46-30-18.07-.2-1.46-.3-3.02-.3-4.66,0,0,13.28,3.25,30.11,4.02,10.28.47,19.93-.6,29.73-1.77,18.8-2.25,35.16-13.83,37.22-24.41,3.24-16.66,2.97-40.67,2.97-40.67ZM114.766,91.17h-15.61v-38.24c0-8.06-3.4-12.15-10.18-12.15-7.5,0-11.26,4.85-11.26,14.45v20.93h-15.52v-20.93c0-9.6-3.76-14.45-11.26-14.45-6.78,0-10.18,4.09-10.18,12.15v38.24h-15.61v-39.4c0-8.05,2.05-14.45,6.17-19.18,4.25-4.74,9.81-7.16,16.72-7.16,7.98,0,14.03,3.07,18.03,9.21l3.89,6.51,3.89-6.51c4-6.14,10.05-9.21,18.04-9.21,6.9,0,12.46,2.42,16.71,7.16,4.12,4.73,6.17,11.13,6.17,19.18v39.4Z"/>
  </g>
</svg>