<?xml version="1.0" encoding="UTF-8"?>
<svg id="Layer_2" data-name="Layer 2" xmlns="http://www.w3.org/2000/svg" viewBox="0 0 826.05 236.46">
  <defs>
    <style>
      .cls-1 {
        fill: #fff;
      }
    </style>
  </defs>
  <g id="Logo">
    <g>
      <g>
        <path class="cls-1" d="M276.29,118.92c7.7,5.94,11.56,15.03,11.56,27.26,0,12.94-4.03,22.44-12.09,28.5-8.06,6.06-19.09,9.09-33.09,9.09h-17.29v47.12h-10.59v-120.88h28.41c14.35,0,25.38,2.97,33.09,8.91ZM267.9,168.59c5.88-4.35,8.82-11.76,8.82-22.23,0-9.88-2.85-16.97-8.56-21.26-5.71-4.29-14.09-6.44-25.15-6.44h-17.65v56.47h17.29c10.94,0,19.35-2.18,25.23-6.53Z"/>
        <path class="cls-1" d="M374.31,188.71h-61.58c.59,12,3.44,20.91,8.56,26.73s11.85,8.74,20.21,8.74c4.82,0,9.09-.73,12.79-2.21,3.71-1.47,7.73-3.79,12.09-6.97l4.76,6.53c-4.59,3.77-9.29,6.59-14.12,8.47-4.83,1.88-10.18,2.82-16.06,2.82-12.24,0-21.82-4.17-28.76-12.53-6.94-8.35-10.41-19.94-10.41-34.76,0-9.76,1.5-18.32,4.5-25.67,3-7.35,7.29-13.06,12.88-17.12,5.59-4.06,12.09-6.09,19.5-6.09,11.76,0,20.7,3.97,26.82,11.91,6.12,7.94,9.18,18.85,9.18,32.73,0,2.59-.12,5.06-.35,7.41ZM364.61,178.12c0-10.35-2.15-18.44-6.44-24.26-4.29-5.82-10.68-8.73-19.15-8.73-7.65,0-13.83,2.94-18.53,8.82-4.71,5.88-7.3,14.82-7.76,26.82h51.88v-2.65Z"/>
        <path class="cls-1" d="M448.78,137.71l-1.94,9.71c-2.59-.71-5.29-1.06-8.12-1.06-6.24,0-11.27,2.27-15.09,6.79-3.82,4.53-7.03,11.62-9.62,21.26v56.47h-10.23v-92.29h8.82l.88,20.65c2.47-7.65,5.85-13.32,10.15-17.03,4.29-3.71,9.62-5.56,15.97-5.56,3.65,0,6.71.35,9.18,1.06Z"/>
        <path class="cls-1" d="M484.86,111.95c-2.65,2.47-3.97,6.41-3.97,11.82v14.82h24.35l-1.41,8.29h-22.94v84h-10.23v-84h-16.06v-8.29h16.06v-15.18c0-7.29,2.26-13.06,6.79-17.29,4.53-4.23,10.79-6.35,18.79-6.35,7.17,0,14.35,1.65,21.53,4.94l-3.53,7.59c-6.12-2.71-11.94-4.06-17.47-4.06s-9.26,1.23-11.91,3.71Z"/>
        <path class="cls-1" d="M589.59,188.71h-61.58c.59,12,3.44,20.91,8.56,26.73,5.12,5.82,11.85,8.74,20.2,8.74,4.82,0,9.09-.73,12.79-2.21,3.71-1.47,7.73-3.79,12.09-6.97l4.76,6.53c-4.59,3.77-9.29,6.59-14.12,8.47-4.83,1.88-10.18,2.82-16.06,2.82-12.24,0-21.82-4.17-28.76-12.53-6.94-8.35-10.41-19.94-10.41-34.76,0-9.76,1.5-18.32,4.5-25.67,3-7.35,7.29-13.06,12.88-17.12,5.59-4.06,12.09-6.09,19.5-6.09,11.76,0,20.7,3.97,26.82,11.91,6.12,7.94,9.18,18.85,9.18,32.73,0,2.59-.12,5.06-.35,7.41ZM579.89,178.12c0-10.35-2.15-18.44-6.44-24.26-4.3-5.82-10.68-8.73-19.15-8.73-7.65,0-13.83,2.94-18.53,8.82-4.71,5.88-7.29,14.82-7.76,26.82h51.88v-2.65Z"/>
        <path class="cls-1" d="M664.76,138.86c4.12,1.47,8.12,3.85,12,7.15l-5.12,6.71c-3.06-2.47-6.21-4.29-9.44-5.47-3.24-1.17-6.91-1.76-11.03-1.76-8.71,0-15.65,3.38-20.82,10.15-5.18,6.77-7.76,16.62-7.76,29.56s2.56,22.47,7.68,28.94c5.12,6.47,12.03,9.71,20.73,9.71,4.12,0,7.85-.64,11.21-1.94,3.35-1.29,6.73-3.23,10.15-5.82l4.94,6.88c-7.76,6.59-16.59,9.88-26.47,9.88-7.88,0-14.76-1.88-20.65-5.65-5.88-3.76-10.44-9.2-13.68-16.32-3.24-7.12-4.85-15.62-4.85-25.5s1.62-18.32,4.85-25.68c3.23-7.35,7.79-13.03,13.68-17.03,5.88-4,12.71-6,20.47-6,5.29,0,10,.74,14.12,2.21Z"/>
        <path class="cls-1" d="M743.82,227c-5.88,3.88-12.35,5.82-19.41,5.82s-12.59-2.09-16.59-6.26c-4-4.17-6-10.2-6-18.09v-61.58h-15.53v-8.29h15.53v-22.06l10.23-1.24v23.29h23.82l-1.24,8.29h-22.59v61.06c0,5.41,1.12,9.44,3.35,12.09,2.23,2.65,5.65,3.97,10.24,3.97s9.41-1.35,14.12-4.06l4.06,7.06Z"/>
        <path class="cls-1" d="M820.14,220.83c1.23,2.12,3.2,3.71,5.91,4.76l-2.29,7.24c-4.24-.82-7.5-2.41-9.79-4.76-2.29-2.35-3.79-5.94-4.5-10.76-6.35,10.35-15.94,15.53-28.76,15.53-8.82,0-15.79-2.5-20.91-7.5-5.12-5-7.68-11.67-7.68-20.03,0-9.53,3.38-16.88,10.15-22.06,6.76-5.17,16.15-7.76,28.15-7.76h17.65v-9c0-7.41-1.65-12.79-4.94-16.15-3.29-3.35-8.76-5.03-16.41-5.03-7.06,0-15.41,1.76-25.06,5.29l-2.65-7.76c10.35-4.12,20.06-6.18,29.12-6.18,20.12,0,30.17,9.77,30.17,29.29v44.47c0,4.83.62,8.29,1.85,10.41ZM808.05,208.3v-25.41h-16.06c-9.41,0-16.59,1.83-21.53,5.47-4.94,3.65-7.41,9.12-7.41,16.41,0,6.35,1.7,11.24,5.12,14.65,3.41,3.41,8.18,5.12,14.29,5.12,11.06,0,19.59-5.41,25.59-16.23Z"/>
      </g>
      <g id="X_Logo" data-name="X Logo">
        <path class="cls-1" d="M250.16,28.88c.07.39-2.8.39-6.45.63,0,0-7.95.59-17.67,1.94-8.75,1.22-15.43,3.86-26.7,8.44-14.03,5.69-24.16,11.5-26.82,13.04-11.91,6.92-20.11,13.32-28.03,19.54-2.29,1.8-9.54,7.54-20.01,17.09-.32.29-.41.77-.2,1.16,0,0,0,0,0,0,2.36,4.46,11.47,21.83,21.57,46.81,2.55,6.3,8.62,21.42,14.79,41.26,7.33,23.56,9.64,37.01,10.81,47.99.02.18.04.35.06.51.14,1.36-.76,2.6-2.09,2.9-4.15.93-8.3,1.86-12.46,2.79-1.71.38-3.32-.95-3.27-2.7.09-3.04.11-6.66,0-10.73-.16-6.16-.77-19.06-4.12-35.9-3.16-15.86-7.07-26.75-12.98-43.19-7.21-20.07-14.11-35.17-18.17-43.59-.28-.57-1.03-.71-1.49-.27,0,0,0,0,0,0-7.23,6.85-21.85,21.12-40.26,42.95-13.38,15.87-22.23,26.36-32.36,42.74-10.75,17.38-16.85,31.52-19.61,38.34-1.92,4.75-3.48,9.02-4.7,12.57-.57,1.67-2.57,2.34-4.04,1.35-4.44-2.99-8.87-5.97-13.31-8.95-1.12-.75-1.51-2.21-.91-3.42.16-.31.32-.64.5-.99,5.9-11.76,14.08-25.8,32.01-49,15.1-19.54,28.09-33.85,33.53-39.8,21.11-23.14,38.27-38.67,43.28-43.14.66-.58,1.3-1.16,1.93-1.72.32-.29.4-.75.21-1.14-5.33-10.31-9.27-16.8-10.54-18.87-4.45-7.26-9.08-14.74-16.49-23.76-1.65-2.01-7.99-9.61-17.47-18.31-7.62-6.98-12.15-11.07-18.76-14.67-7.34-3.99-13.51-6.86-13.51-6.86-2.84-1.28-5.13-2.15-4.96-2.44.06-.11,2.44.38,5.74,1.45,3.71,1.2,8.23,3.04,10.68,4.2,12.65,5.96,25.61,16.72,25.61,16.72,17.14,13.86,27.25,28.24,33.61,37.42,4.61,6.66,7.89,12.2,11.6,18.99.41.75,1.42.93,2.06.37,7.28-6.36,13.35-11.32,21.5-17.02,10.81-7.56,27.93-19.33,52.51-27.55,0,0,18.71-6.52,35.06-7.83,3.16-.26,8.89-.39,13.45-.17,4.06.2,6.86.67,6.89.81Z"/>
        <path class="cls-1" d="M17.45,236.46c-.81,0-1.61-.24-2.31-.71l-13.31-8.95c-1.72-1.15-2.32-3.42-1.4-5.28l.5-1c5.38-10.73,13.41-24.98,32.15-49.23,15.47-20.02,28.65-34.46,33.61-39.9,19.36-21.22,35.49-36.2,43.39-43.25l1.62-1.45c-2.49-4.8-6.24-11.78-10.3-18.42-4.15-6.77-8.86-14.45-16.38-23.59-2.84-3.46-8.88-10.41-17.33-18.16-7.78-7.13-12.14-11.01-18.48-14.46-7.22-3.92-13.36-6.79-13.43-6.82-.73-.33-1.43-.63-2.06-.91-2.68-1.17-3.4-1.48-3.68-2.35l-.2-.63.34-.62c.48-.86.76-1.35,7.43.81,3.79,1.23,8.42,3.12,10.85,4.27,12.67,5.97,25.39,16.47,25.92,16.91,17.64,14.27,27.8,28.94,33.88,37.71,4.83,6.98,8.14,12.65,11.62,19,7.01-6.12,13.07-11.11,21.51-17.02,10.32-7.21,27.59-19.28,52.89-27.74.17-.06,19.06-6.59,35.41-7.9,3.14-.25,8.99-.4,13.64-.17,7.97.4,8.09,1.05,8.25,2.02l.11.65-.43.58c-.6.75-1.49.79-4.81.95-.81.04-1.71.08-2.67.15-.06,0-8.01.6-17.56,1.93-8.42,1.17-14.83,3.67-26.36,8.34-12.51,5.07-22.06,10.29-26.63,12.95-12.08,7.03-20.47,13.62-27.86,19.43-7.46,5.86-14.75,12.3-19.64,16.76,4.25,8.05,12.52,24.51,21.46,46.62,2.33,5.76,8.52,21.08,14.83,41.37,7.67,24.65,9.8,38.23,10.87,48.26l.06.5c.22,2.11-1.17,4.03-3.22,4.49l-12.46,2.79c-1.26.28-2.55-.03-3.54-.85-.99-.82-1.54-2.02-1.51-3.31.1-3.49.1-7.07,0-10.65-.29-11.48-1.67-23.47-4.1-35.65-3.14-15.76-7.03-26.59-12.92-42.99-5.39-15.02-11.38-29.42-17.8-42.81-13.2,12.56-26.52,26.79-39.64,42.34-13.38,15.87-22.18,26.31-32.24,42.57-7.78,12.57-14.34,25.4-19.5,38.12-1.64,4.05-3.22,8.26-4.67,12.49-.42,1.23-1.37,2.17-2.6,2.58-.43.15-.88.22-1.33.22ZM59.6,15.51c2.95,2.36,6.07,5.19,10.07,8.85,8.58,7.87,14.72,14.94,17.61,18.46,7.65,9.29,12.41,17.06,16.61,23.92,4.21,6.88,8.08,14.11,10.59,18.96.5.98.28,2.17-.53,2.9l-1.93,1.72c-7.85,7-23.9,21.91-43.18,43.03-4.94,5.41-18.06,19.79-33.45,39.71-18.59,24.05-26.54,38.15-31.86,48.76l-.5.99c-.27.55-.09,1.22.42,1.56l13.32,8.95c.32.21.71.27,1.08.15.36-.12.64-.4.77-.76,1.48-4.29,3.07-8.54,4.73-12.64,5.22-12.87,11.85-25.85,19.72-38.56,10.17-16.44,19.02-26.94,32.43-42.84,13.43-15.92,27.01-30.41,40.43-43.14l.21-.17c.54-.4,1.22-.57,1.89-.45.75.14,1.39.63,1.72,1.32,6.58,13.66,12.71,28.38,18.23,43.73,5.94,16.52,9.86,27.43,13.04,43.4,2.46,12.34,3.86,24.5,4.15,36.15.09,3.63.09,7.26,0,10.8-.01.38.15.74.45.98.29.24.68.33,1.05.25l12.46-2.79c.61-.14,1.02-.7.96-1.32l-.06-.51c-1.06-9.9-3.16-23.3-10.75-47.71-6.28-20.18-12.43-35.41-14.75-41.14-9.01-22.31-17.34-38.82-21.51-46.68l-.04-.08c-.47-.96-.25-2.12.55-2.84,4.93-4.5,12.42-11.13,20.09-17.16,7.47-5.87,15.94-12.53,28.2-19.66,4.64-2.7,14.33-7.99,27-13.13,9.61-3.9,15.73-6.31,22.43-7.72-13.31,2.26-25.82,6.58-25.97,6.63-24.92,8.33-41.97,20.25-52.16,27.37-8.38,5.86-14.39,10.82-21.38,16.92-.64.56-1.49.8-2.33.65-.84-.15-1.56-.67-1.97-1.42-3.45-6.32-6.73-11.94-11.52-18.86-5.98-8.64-16-23.1-33.33-37.12-.09-.08-5.66-4.67-12.96-9.46ZM248.72,29.12s0,0,0,0h0s0,0,0,0Z"/>
        <path class="cls-1" d="M145.83,6.35c-10.39,0-18.81,8.42-18.81,18.8s8.42,18.81,18.81,18.81,18.81-8.42,18.81-18.81-8.42-18.8-18.81-18.8ZM145.83,36.57c-6.31,0-11.42-5.12-11.42-11.42s5.12-11.42,11.42-11.42,11.42,5.12,11.42,11.42-5.12,11.42-11.42,11.42Z"/>
      </g>
    </g>
  </g>
</svg>